<svg width="30" height="30" viewBox="0 0 30 30" fill="none" xmlns="http://www.w3.org/2000/svg">
<path d="M30 15C30 23.2843 23.2843 30 15 30C6.71573 30 0 23.2843 0 15C0 6.71573 6.71573 0 15 0C23.2843 0 30 6.71573 30 15ZM1.37967 15C1.37967 22.5223 7.4777 28.6203 15 28.6203C22.5223 28.6203 28.6203 22.5223 28.6203 15C28.6203 7.4777 22.5223 1.37967 15 1.37967C7.4777 1.37967 1.37967 7.4777 1.37967 15Z" fill="#2D2D2D"/>
<path d="M20.6697 19.0797L16.59 15L20.6697 10.9203C21.1101 10.4799 21.1101 9.77079 20.6697 9.33034C20.2292 8.88989 19.5201 8.88989 19.0797 9.33034L15 13.41L10.9203 9.33034C10.4799 8.88989 9.77079 8.88989 9.33034 9.33034C8.88989 9.77079 8.88989 10.4799 9.33034 10.9203L13.41 15L9.33034 19.0797C8.88989 19.5201 8.88989 20.2292 9.33034 20.6697C9.77079 21.1101 10.4799 21.1101 10.9203 20.6697L15 16.59L19.0797 20.6697C19.5201 21.1101 20.2292 21.1101 20.6697 20.6697C21.107 20.2292 21.107 19.517 20.6697 19.0797Z" fill="black"/>
</svg>
