<svg width="30" height="33" viewBox="0 0 30 33" fill="none" xmlns="http://www.w3.org/2000/svg">
<mask id="path-1-inside-1_80_3" fill="white">
<path fill-rule="evenodd" clip-rule="evenodd" d="M26.1333 21.2438V29.7967C26.1333 30.6463 25.8274 31.4611 25.2829 32.0618C24.7383 32.6625 23.9997 33 23.2296 33H2.9037C2.13359 33 1.39503 32.6625 0.850475 32.0618C0.305925 31.4611 0 30.6463 0 29.7967V7.37338C0 6.5238 0.305925 5.70902 0.850475 5.10828C1.39503 4.50754 2.13359 4.17004 2.9037 4.17004H10.6566"/>
</mask>
<path d="M29.1333 21.2438C29.1333 19.587 27.7902 18.2438 26.1333 18.2438C24.4765 18.2438 23.1333 19.587 23.1333 21.2438H26.1333H29.1333ZM0 29.7967H-3H0ZM2.9037 4.17004L2.9037 1.17004L2.9037 4.17004ZM10.6566 7.17004C12.3134 7.17004 13.6566 5.8269 13.6566 4.17004C13.6566 2.51319 12.3134 1.17004 10.6566 1.17004V4.17004V7.17004ZM26.1333 21.2438H23.1333V29.7967H26.1333H29.1333V21.2438H26.1333ZM26.1333 29.7967H23.1333C23.1333 29.9405 23.0788 30.0264 23.0601 30.047L25.2829 32.0618L27.5056 34.0766C28.576 32.8958 29.1333 31.352 29.1333 29.7967H26.1333ZM25.2829 32.0618L23.0601 30.047C23.0538 30.0539 23.0626 30.0419 23.094 30.0276C23.1261 30.0129 23.1733 30 23.2296 30V33V36C24.8958 36 26.4263 35.2673 27.5056 34.0766L25.2829 32.0618ZM23.2296 33V30H2.9037V33V36H23.2296V33ZM2.9037 33V30C2.96004 30 3.00723 30.0129 3.03936 30.0276C3.07077 30.0419 3.07949 30.0539 3.0732 30.047L0.850475 32.0618L-1.37225 34.0766C-0.29299 35.2673 1.23757 36 2.9037 36V33ZM0.850475 32.0618L3.0732 30.047C3.05449 30.0264 3 29.9405 3 29.7967H0H-3C-3 31.352 -2.44264 32.8958 -1.37225 34.0766L0.850475 32.0618ZM0 29.7967H3V7.37338H0H-3V29.7967H0ZM0 7.37338H3C3 7.22955 3.05449 7.14373 3.0732 7.1231L0.850475 5.10828L-1.37225 3.09346C-2.44264 4.27431 -3 5.81805 -3 7.37338H0ZM0.850475 5.10828L3.0732 7.1231C3.07949 7.11615 3.07077 7.12815 3.03936 7.1425C3.00723 7.15718 2.96004 7.17004 2.9037 7.17004L2.9037 4.17004L2.9037 1.17004C1.23757 1.17004 -0.29299 1.90283 -1.37225 3.09346L0.850475 5.10828ZM2.9037 4.17004V7.17004H10.6566V4.17004V1.17004H2.9037V4.17004Z" fill="black" mask="url(#path-1-inside-1_80_3)"/>
<path fill-rule="evenodd" clip-rule="evenodd" d="M22.3703 2L28 8.2L13.9259 23.7H8.29626V17.5L22.3703 2Z" stroke="black" stroke-width="2.5" stroke-linecap="round" stroke-linejoin="round"/>
</svg>
