<svg width="32" height="32" viewBox="0 0 32 32" fill="none" xmlns="http://www.w3.org/2000/svg">
<path d="M24.336 4.805L27.195 7.664L15.3 20H12V16.7L24.336 4.805ZM24.362 7.41251e-07C23.832 7.41251e-07 23.325 0.210001 22.952 0.584001L8 15V24H17L31.416 9.05C32.195 8.27 32.195 7.007 31.416 6.228L25.773 0.585001C25.5879 0.399365 25.368 0.252123 25.1259 0.151731C24.8837 0.0513384 24.6241 -0.000225497 24.362 7.41251e-07Z" fill="#1D1D1B"/>
<path d="M28 27C28 27.2652 27.8946 27.5196 27.7071 27.7071C27.5196 27.8946 27.2652 28 27 28H5C4.73478 28 4.48043 27.8946 4.29289 27.7071C4.10536 27.5196 4 27.2652 4 27V5C4 4.73478 4.10536 4.48043 4.29289 4.29289C4.48043 4.10536 4.73478 4 5 4H10C10.5304 4 11.0391 3.78929 11.4142 3.41421C11.7893 3.03914 12 2.53043 12 2C12 1.46957 11.7893 0.960859 11.4142 0.585786C11.0391 0.210714 10.5304 0 10 0L2 0C1.46957 0 0.960859 0.210714 0.585786 0.585786C0.210714 0.960859 0 1.46957 0 2L0 30C0 30.5304 0.210714 31.0391 0.585786 31.4142C0.960859 31.7893 1.46957 32 2 32H30C30.5304 32 31.0391 31.7893 31.4142 31.4142C31.7893 31.0391 32 30.5304 32 30V22C32 21.4696 31.7893 20.9609 31.4142 20.5858C31.0391 20.2107 30.5304 20 30 20C29.4696 20 28.9609 20.2107 28.5858 20.5858C28.2107 20.9609 28 21.4696 28 22V27Z" fill="#1D1D1B"/>
</svg>
