<svg width="34" height="19" viewBox="0 0 34 19" fill="none" xmlns="http://www.w3.org/2000/svg">
<path d="M17.3404 3H32C32.5523 3 33 2.55228 33 2V2C33 1.44772 32.5523 1 32 1H2C1.44772 1 1 1.44772 1 2V2C1 2.55228 1.44771 3 2 3H17.3404ZM17.3404 3H32.3191C32.6952 3 33 2.55228 33 2C33 1.44772 32.6952 1 32.3191 1H1.68085C1.30483 1 1 1.44772 1 2C1 2.55228 1.30483 3 1.68085 3H17.3404Z" stroke="black" stroke-width="2"/>
<path d="M17.3404 11H32C32.5523 11 33 10.5523 33 10V10C33 9.44772 32.5523 9 32 9H2C1.44772 9 1 9.44772 1 10V10C1 10.5523 1.44771 11 2 11H17.3404ZM17.3404 11H32.3191C32.6952 11 33 10.5523 33 10C33 9.44772 32.6952 9 32.3191 9H1.68085C1.30483 9 1 9.44772 1 10C1 10.5523 1.30483 11 1.68085 11H17.3404Z" stroke="black" stroke-width="2"/>
<path d="M17.3404 18H32C32.5523 18 33 17.5523 33 17V17C33 16.4477 32.5523 16 32 16H2C1.44772 16 1 16.4477 1 17V17C1 17.5523 1.44771 18 2 18H17.3404ZM17.3404 18H32.3191C32.6952 18 33 17.5523 33 17C33 16.4477 32.6952 16 32.3191 16H1.68085C1.30483 16 1 16.4477 1 17C1 17.5523 1.30483 18 1.68085 18H17.3404Z" stroke="black" stroke-width="2"/>
</svg>
