<svg width="36" height="21" viewBox="0 0 36 21" fill="none" xmlns="http://www.w3.org/2000/svg">
<path d="M33.3191 2H2.68085C2.30483 2 2 2.45338 2 3.01266C2 3.57193 2.30483 4.02532 2.68085 4.02532H18.3404H33.3191C33.6952 4.02532 34 3.57193 34 3.01266C34 2.45338 33.6952 2 33.3191 2Z" fill="#3D2422"/>
<path d="M18.3404 4.02532H32.9873C33.5466 4.02532 34 3.57193 34 3.01266M18.3404 4.02532H3.01266C2.45338 4.02532 2 3.57193 2 3.01266M18.3404 4.02532H33.3191C33.6952 4.02532 34 3.57193 34 3.01266M18.3404 4.02532H2.68085C2.30483 4.02532 2 3.57193 2 3.01266M2 3.01266C2 2.45338 2.30483 2 2.68085 2H33.3191C33.6952 2 34 2.45338 34 3.01266M2 3.01266C2 2.45338 2.45338 2 3.01266 2H32.9873C33.5466 2 34 2.45338 34 3.01266" stroke="#FFF5E4" stroke-width="2.3"/>
<path d="M33.3191 10.1013H2.68085C2.30483 10.1013 2 10.5546 2 11.1139C2 11.6732 2.30483 12.1266 2.68085 12.1266H18.3404H33.3191C33.6952 12.1266 34 11.6732 34 11.1139C34 10.5546 33.6952 10.1013 33.3191 10.1013Z" fill="#3D2422"/>
<path d="M18.3404 12.1266H32.9873C33.5466 12.1266 34 11.6732 34 11.1139M18.3404 12.1266H3.01266C2.45338 12.1266 2 11.6732 2 11.1139M18.3404 12.1266H33.3191C33.6952 12.1266 34 11.6732 34 11.1139M18.3404 12.1266H2.68085C2.30483 12.1266 2 11.6732 2 11.1139M2 11.1139C2 10.5546 2.30483 10.1013 2.68085 10.1013H33.3191C33.6952 10.1013 34 10.5546 34 11.1139M2 11.1139C2 10.5546 2.45338 10.1013 3.01266 10.1013H32.9873C33.5466 10.1013 34 10.5546 34 11.1139" stroke="#FFF5E4" stroke-width="2.3"/>
<path d="M33.3191 17.1899H2.68085C2.30483 17.1899 2 17.6433 2 18.2025C2 18.7618 2.30483 19.2152 2.68085 19.2152H18.3404H33.3191C33.6952 19.2152 34 18.7618 34 18.2025C34 17.6433 33.6952 17.1899 33.3191 17.1899Z" fill="#3D2422"/>
<path d="M18.3404 19.2152H32.9873C33.5466 19.2152 34 18.7618 34 18.2025M18.3404 19.2152H3.01266C2.45338 19.2152 2 18.7618 2 18.2025M18.3404 19.2152H33.3191C33.6952 19.2152 34 18.7618 34 18.2025M18.3404 19.2152H2.68085C2.30483 19.2152 2 18.7618 2 18.2025M2 18.2025C2 17.6433 2.30483 17.1899 2.68085 17.1899H33.3191C33.6952 17.1899 34 17.6433 34 18.2025M2 18.2025C2 17.6433 2.45338 17.1899 3.01266 17.1899H32.9873C33.5466 17.1899 34 17.6433 34 18.2025" stroke="#FFF5E4" stroke-width="2.3"/>
</svg>
