<svg width="8" height="13" viewBox="0 0 8 13" fill="none" xmlns="http://www.w3.org/2000/svg">
<path d="M1.64099 12.268C1.54013 12.3522 1.42369 12.4157 1.29829 12.4549C1.1729 12.494 1.04102 12.5081 0.910186 12.4963C0.779348 12.4845 0.652115 12.4471 0.535749 12.3861C0.419384 12.3252 0.316166 12.2419 0.231989 12.141C0.147812 12.0402 0.084323 11.9237 0.0451489 11.7983C0.00597484 11.6729 -0.0081175 11.541 0.00367555 11.4102C0.0154686 11.2794 0.0529164 11.1521 0.113881 11.0358C0.174846 10.9194 0.258134 10.8162 0.358989 10.732L5.43699 6.50001L0.358989 2.26801C0.155303 2.09801 0.0274927 1.85405 0.00367555 1.58982C-0.0201416 1.32558 0.0619852 1.0627 0.231989 0.859013C0.401993 0.655326 0.645947 0.527517 0.910186 0.5037C1.17442 0.479883 1.4373 0.56201 1.64099 0.732014L7.64099 5.73201C7.75353 5.82586 7.84407 5.9433 7.9062 6.07601C7.96833 6.20873 8.00054 6.35348 8.00054 6.50001C8.00054 6.64655 7.96833 6.7913 7.9062 6.92401C7.84407 7.05673 7.75353 7.17416 7.64099 7.26801L1.64099 12.268Z" fill="#725743"/>
</svg>
