<svg width="9" height="13" viewBox="0 0 9 13" fill="none" xmlns="http://www.w3.org/2000/svg">
<path d="M6.85901 12.268C6.95987 12.3522 7.07631 12.4157 7.20171 12.4549C7.3271 12.494 7.45898 12.5081 7.58981 12.4963C7.72065 12.4845 7.84789 12.4471 7.96425 12.3861C8.08062 12.3252 8.18383 12.2419 8.26801 12.141C8.35219 12.0402 8.41568 11.9237 8.45485 11.7983C8.49403 11.6729 8.50812 11.541 8.49632 11.4102C8.48453 11.2794 8.44708 11.1521 8.38612 11.0358C8.32515 10.9194 8.24187 10.8162 8.14101 10.732L3.06301 6.50001L8.14101 2.26801C8.3447 2.09801 8.47251 1.85405 8.49632 1.58982C8.52014 1.32558 8.43801 1.0627 8.26801 0.859013C8.09801 0.655326 7.85405 0.527517 7.58981 0.5037C7.32558 0.479883 7.0627 0.56201 6.85901 0.732014L0.859011 5.73201C0.746469 5.82586 0.65593 5.9433 0.593798 6.07601C0.531666 6.20873 0.499462 6.35348 0.499462 6.50001C0.499462 6.64655 0.531666 6.7913 0.593798 6.92401C0.65593 7.05673 0.746469 7.17416 0.859011 7.26801L6.85901 12.268Z" fill="#725743"/>
</svg>
