<svg width="27" height="31" viewBox="0 0 27 31" fill="none" xmlns="http://www.w3.org/2000/svg">
<path d="M9.5 25.136C9.89782 25.136 10.2794 24.978 10.5607 24.6967C10.842 24.4154 11 24.0338 11 23.636V12.5C11 12.1022 10.842 11.7206 10.5607 11.4393C10.2794 11.158 9.89782 11 9.5 11C9.10218 11 8.72064 11.158 8.43934 11.4393C8.15804 11.7206 8 12.1022 8 12.5V23.636C8 24.0338 8.15804 24.4154 8.43934 24.6967C8.72064 24.978 9.10218 25.136 9.5 25.136ZM16.956 25.136C17.3538 25.136 17.7354 24.978 18.0167 24.6967C18.298 24.4154 18.456 24.0338 18.456 23.636V12.5C18.456 12.1022 18.298 11.7206 18.0167 11.4393C17.7354 11.158 17.3538 11 16.956 11C16.5582 11 16.1766 11.158 15.8953 11.4393C15.614 11.7206 15.456 12.1022 15.456 12.5V23.636C15.456 24.0338 15.614 24.4154 15.8953 24.6967C16.1766 24.978 16.5582 25.136 16.956 25.136Z" fill="black"/>
<path d="M0 6.839C0 7.23682 0.158035 7.61836 0.43934 7.89966C0.720644 8.18096 1.10218 8.339 1.5 8.339H2.3V26.064C2.30132 27.3728 2.82176 28.6276 3.74712 29.5532C4.67249 30.4787 5.92721 30.9994 7.236 31.001H19.652C20.9608 30.9994 22.2155 30.4787 23.1409 29.5532C24.0662 28.6276 24.5867 27.3728 24.588 26.064V8.339H25.388C25.7858 8.339 26.1674 8.18096 26.4487 7.89966C26.73 7.61836 26.888 7.23682 26.888 6.839C26.888 6.44118 26.73 6.05964 26.4487 5.77834C26.1674 5.49704 25.7858 5.339 25.388 5.339H20.138V3.791C20.138 1.701 18.438 0 16.348 0H10.54C8.45 0 6.75 1.7 6.75 3.791V5.338H1.5C1.10218 5.338 0.720644 5.49604 0.43934 5.77734C0.158035 6.05864 0 6.44118 0 6.839ZM9.75 3.792C9.75 3.355 10.104 3.001 10.54 3.001H16.348C16.784 3.001 17.138 3.355 17.138 3.792V5.339H9.749V3.791L9.75 3.792ZM5.3 8.339H21.588V26.064C21.5875 26.5774 21.3834 27.0696 21.0204 27.4327C20.6575 27.7958 20.1654 28.0002 19.652 28.001H7.236C6.72261 28.0002 6.23049 27.7958 5.86757 27.4327C5.50464 27.0696 5.30053 26.5774 5.3 26.064V8.339Z" fill="black"/>
</svg>
