<svg width="28" height="31" viewBox="0 0 28 31" fill="none" xmlns="http://www.w3.org/2000/svg">
<path d="M9.89285 25.1352C10.3071 25.1352 10.7044 24.9771 10.9974 24.6959C11.2903 24.4146 11.4549 24.033 11.4549 23.6352V12.4996C11.4549 12.1018 11.2903 11.7203 10.9974 11.439C10.7044 11.1577 10.3071 10.9996 9.89285 10.9996C9.47857 10.9996 9.08126 11.1577 8.78832 11.439C8.49538 11.7203 8.33081 12.1018 8.33081 12.4996V23.6352C8.33081 24.033 8.49538 24.4146 8.78832 24.6959C9.08126 24.9771 9.47857 25.1352 9.89285 25.1352ZM17.6572 25.1352C18.0715 25.1352 18.4688 24.9771 18.7617 24.6959C19.0547 24.4146 19.2192 24.033 19.2192 23.6352V12.4996C19.2192 12.1018 19.0547 11.7203 18.7617 11.439C18.4688 11.1577 18.0715 10.9996 17.6572 10.9996C17.2429 10.9996 16.8456 11.1577 16.5527 11.439C16.2597 11.7203 16.0952 12.1018 16.0952 12.4996V23.6352C16.0952 24.033 16.2597 24.4146 16.5527 24.6959C16.8456 24.9771 17.2429 25.1352 17.6572 25.1352Z" fill="black"/>
<path d="M0 6.83878C0 7.23659 0.164571 7.61811 0.45751 7.89941C0.750448 8.1807 1.14776 8.33873 1.56204 8.33873H2.39512V26.0632C2.3965 27.3719 2.93846 28.6267 3.90209 29.5522C4.86572 30.4777 6.17234 30.9984 7.53526 31H20.4647C21.8277 30.9984 23.1343 30.4777 24.0979 29.5522C25.0615 28.6267 25.6035 27.3719 25.6049 26.0632V8.33873H26.438C26.8522 8.33873 27.2495 8.1807 27.5425 7.89941C27.8354 7.61811 28 7.23659 28 6.83878C28 6.44097 27.8354 6.05945 27.5425 5.77815C27.2495 5.49686 26.8522 5.33883 26.438 5.33883H20.9708V3.79088C20.9708 1.70095 19.2005 0 17.0241 0H10.9759C8.79946 0 7.02916 1.69994 7.02916 3.79088V5.33783H1.56204C1.14776 5.33783 0.750448 5.49586 0.45751 5.77715C0.164571 6.05845 0 6.44097 0 6.83878ZM10.1532 3.79188C10.1532 3.35489 10.5219 3.0009 10.9759 3.0009H17.0241C17.4781 3.0009 17.8468 3.35489 17.8468 3.79188V5.33883H10.1522V3.79088L10.1532 3.79188ZM5.51919 8.33873H22.4808V26.0632C22.4803 26.5765 22.2677 27.0687 21.8898 27.4318C21.5118 27.7949 20.9994 27.9993 20.4647 28.0001H7.53526C7.00064 27.9993 6.48816 27.7949 6.11023 27.4318C5.73229 27.0687 5.51974 26.5765 5.51919 26.0632V8.33873Z" fill="black"/>
</svg>
