<svg width="20" height="20" viewBox="0 0 20 20" fill="none" xmlns="http://www.w3.org/2000/svg">
<path d="M14.4199 3.71143L7.39453 7.54053L7.22461 7.6333L7.39746 7.71826L9.93262 8.96338L9.97852 8.98584L10.0244 8.96143L16.6689 5.34131L16.8018 5.26807L16.6826 5.17432C15.9983 4.63661 15.277 4.14644 14.5176 3.7124L14.4688 3.68408L14.4199 3.71143ZM10.8369 2.06201C10.3025 1.84865 9.70102 1.84778 9.17578 2.05713L7.8877 2.5542L7.88672 2.55518C6.12702 3.24826 4.5007 4.19617 3.05859 5.37256L3.05273 5.37842C3.04277 5.38801 3.03227 5.39612 3.01953 5.40674L3.01172 5.41455L2.91016 5.51318L3.03711 5.57568L5.2002 6.63818L5.24707 6.66064L5.29199 6.63623L12.2998 2.81689L12.4854 2.71533L12.2891 2.63623C12.2597 2.62437 12.2307 2.61149 12.1992 2.59717C12.1682 2.58308 12.1345 2.56784 12.0996 2.5542L10.8369 2.06201ZM3.87012 7.98975L3.81445 7.9624L2.30664 7.22119L2.1875 7.1626L2.16406 7.29346C1.80201 9.32238 1.82501 11.4112 2.27832 13.3872V13.3882C2.37483 13.8276 2.61618 14.2304 2.96094 14.5396L3.02734 14.4653L2.96094 14.5405L2.97168 14.5483C2.99498 14.5642 3.01755 14.5806 3.03906 14.5981C4.47688 15.7767 6.10698 16.7312 7.88379 17.4341L9.15918 17.936C9.70249 18.1525 10.2998 18.1514 10.8418 17.937C11.3048 17.7535 11.8264 17.9815 12.0088 18.4429C12.1915 18.9052 11.9651 19.4281 11.5029 19.6108C11.0186 19.8024 10.5097 19.8989 10.001 19.8989C9.49214 19.8989 8.98298 19.8025 8.49805 19.6108L7.22266 19.1089C5.54438 18.4447 3.98479 17.5758 2.5752 16.521L1.98047 16.0571L1.97168 16.0513L1.88379 15.9878C1.19154 15.4147 0.70842 14.6302 0.522461 13.7827V13.7817L0.422852 13.3198C-0.03896 11.0016 -0.00622859 8.55036 0.523438 6.20752L0.524414 6.20654C0.577677 5.96383 0.662587 5.72795 0.764648 5.49561C0.769351 5.48514 0.771788 5.4754 0.773438 5.46826C0.77372 5.46704 0.773192 5.46554 0.773438 5.46436C0.774663 5.46297 0.777042 5.46199 0.77832 5.46045C0.783079 5.4547 0.788406 5.44618 0.793945 5.43604H0.794922L0.797852 5.43018C1.04092 4.90391 1.39163 4.42382 1.84375 4.04346L1.84473 4.04443L1.84961 4.03955C1.86185 4.0277 1.87243 4.01734 1.88867 4.00342C3.48228 2.69756 5.28019 1.64585 7.23242 0.877441L7.2334 0.878418L8.51562 0.384277L8.51758 0.383301C9.45542 0.00731793 10.5464 0.00620275 11.4971 0.388184H11.498L12.7539 0.876465C14.713 1.64224 16.5161 2.69479 18.1143 4.00537V4.00635C18.1464 4.03245 18.1772 4.06085 18.2051 4.09131L18.2041 4.09229L18.2129 4.09912C18.8527 4.65268 19.3001 5.39897 19.4785 6.2124L19.4795 6.21338C19.7565 7.41457 19.8975 8.69123 19.8975 9.99854C19.8975 10.3589 19.8866 10.7204 19.8643 11.0806C19.8338 11.5765 19.4173 11.9501 18.9111 11.9233C18.4149 11.8926 18.0376 11.4658 18.0684 10.9692C18.088 10.646 18.0977 10.3218 18.0977 9.99854C18.0977 8.94109 17.9808 7.91603 17.7783 6.93311L17.751 6.80127L17.6318 6.86572L10.4316 10.7886C10.2975 10.8616 10.1494 10.8989 10.001 10.8989C9.86576 10.8989 9.73013 10.868 9.60449 10.8071H9.60547L5.81445 8.94482L5.66992 8.87354V11.0249C5.66992 11.5224 5.26658 11.9253 4.76953 11.9253C4.2727 11.925 3.87012 11.5222 3.87012 11.0249V7.98975Z" fill="#131313" stroke="black" stroke-width="0.2"/>
</svg>
