<svg width="17" height="22" viewBox="0 0 17 22" fill="none" xmlns="http://www.w3.org/2000/svg">
<path d="M12.0647 21.2454L1.33988 21.2449C1.20968 21.2447 1.04924 21.2613 0.924249 21.223C0.144423 20.984 0.00136696 20.4719 0.000512638 19.7738L0 17.6487C0.000427161 16.9982 0.0253734 16.4537 0.158434 15.8105C0.533824 13.9959 1.00712 13.8557 2.70688 13.1871L5.87663 11.968C6.06475 11.8927 6.2504 11.8046 6.44702 11.7542L6.46026 11.7518C6.59217 11.745 7.24274 12.3484 7.37708 12.4561L8.46322 13.2743C8.94438 12.9607 9.4011 12.5972 9.85594 12.2468C10.0697 12.0821 10.2795 11.8859 10.5164 11.7573C10.8309 11.8533 11.1313 11.9803 11.437 12.1005L13.9474 13.0519C14.5502 13.2817 15.6486 13.6427 16.1146 14.0973C16.7502 14.7172 16.9901 16.3059 17 17.1722L16.9995 19.8864C16.9974 20.5471 16.7258 21.0989 16.0031 21.2324C15.8666 21.2576 15.7138 21.2448 15.5747 21.2449L12.0647 21.2454ZM11.3469 12.8218L10.3846 14.0025C10.14 14.3108 9.92206 14.6365 9.63612 14.91C9.51895 14.8347 9.45889 14.7721 9.39311 14.6486L9.14198 15.0559L10.3136 20.4792L13.8496 20.4806L15.7182 20.4802C16.2394 20.4784 16.2728 20.2546 16.2735 19.7606L16.2725 17.0382C16.2619 16.4509 16.0529 15.0385 15.6312 14.6338C15.3178 14.333 14.4846 14.0724 14.0805 13.9117C13.1719 13.5503 12.2326 13.2355 11.3469 12.8218ZM5.63708 12.836L1.97178 14.2971C1.49545 14.5055 1.27315 14.6574 1.07986 15.1659C0.811948 15.8709 0.721988 16.6237 0.720963 17.3724L0.72075 19.3945C0.72092 19.6879 0.634121 20.3073 0.97837 20.4475L1.02177 20.4621C1.10524 20.4885 1.21254 20.4803 1.29972 20.4805L3.23767 20.4806L6.39174 20.4803C6.7166 20.4803 6.67201 20.5601 6.73924 20.2633L7.85973 15.0086C7.78391 14.8709 7.70411 14.7475 7.60881 14.6226C7.56072 14.7463 7.51428 14.8345 7.42334 14.932C7.21561 14.8114 7.06252 14.5687 6.91361 14.3828L6.30584 13.6303C6.09893 13.3671 5.89004 13.056 5.63708 12.836Z" fill="black"/>
<path d="M8.69564 11.6685C7.74247 11.7152 7.0447 11.4092 6.32878 10.7633C4.70663 9.29997 3.55129 6.14099 4.16913 4.01654C4.27507 3.65239 4.35931 3.52035 4.42629 3.12275C4.67169 1.66587 6.97447 0.810107 8.24639 0.753662C9.41891 0.729421 10.6443 0.924138 11.5648 1.71412C11.9295 2.02716 12.2796 2.47641 12.4256 2.93796C12.4872 3.13258 12.5165 3.33616 12.5781 3.53052C12.6309 3.69694 12.6963 3.85892 12.7422 4.02765C13.1191 5.41263 12.7833 6.97669 12.25 8.27056C11.6472 9.73299 10.4282 11.5459 8.69564 11.6685ZM11.0245 3.66409C9.96858 3.80245 9.21143 4.73507 8.35198 4.84105C7.63606 4.9293 6.89438 4.64528 6.26504 4.33785C5.65403 4.0394 5.28052 3.83957 5.03397 4.60675C4.52167 6.20075 5.25968 8.46282 6.32416 9.74563C6.8204 10.3189 7.41714 10.8566 8.21171 10.9181C10.5362 11.0979 11.9355 7.87586 12.0649 5.90806C12.1052 5.29401 12.065 3.69575 11.1773 3.66025L11.0245 3.66409Z" fill="black"/>
</svg>
