<svg width="24" height="24" viewBox="0 0 24 24" fill="none" xmlns="http://www.w3.org/2000/svg">
<path d="M11.7647 2.79412C13.4706 2.79412 14.8529 4.17647 14.8529 5.88235C14.8529 7.58823 13.4706 8.97059 11.7647 8.97059C10.0588 8.97059 8.67647 7.58823 8.67647 5.88235C8.67647 4.17647 10.0588 2.79412 11.7647 2.79412ZM11.7647 16.0294C16.1324 16.0294 20.7353 18.1765 20.7353 19.1176V20.7353H2.79412V19.1176C2.79412 18.1765 7.39706 16.0294 11.7647 16.0294ZM11.7647 0C8.51471 0 5.88235 2.63235 5.88235 5.88235C5.88235 9.13235 8.51471 11.7647 11.7647 11.7647C15.0147 11.7647 17.6471 9.13235 17.6471 5.88235C17.6471 2.63235 15.0147 0 11.7647 0ZM11.7647 13.2353C7.83823 13.2353 0 15.2059 0 19.1176V22.0588C0 22.8676 0.661765 23.5294 1.47059 23.5294H22.0588C22.8676 23.5294 23.5294 22.8676 23.5294 22.0588V19.1176C23.5294 15.2059 15.6912 13.2353 11.7647 13.2353Z" fill="#725743"/>
</svg>
