<svg width="20" height="20" viewBox="0 0 20 20" fill="none" xmlns="http://www.w3.org/2000/svg">
<path d="M9.29015 5V5.97146C8.89374 5.97146 7.11024 6.47225 7.11024 8.07785C7.11024 9.50619 8.39723 9.89501 9.28922 10.0226L9.29015 11.6367C8.63885 11.4524 8.5205 10.9555 8.43006 10.5448H7C7.08854 12.1512 8.51143 12.8982 9.29018 13.0117V14H10.6496V13.0267C11.7256 12.9699 13 12.0486 13 10.7858C13 9.33946 11.7306 8.92893 10.6496 8.81857V7.33897C11.0749 7.36886 11.4068 7.78734 11.4428 8.21328H12.8587C12.8587 6.77851 11.5422 6.02377 10.6354 5.97146V5H9.29015ZM9.29769 7.35299V8.57945C8.33941 8.5645 8.32078 7.52316 9.29769 7.35299ZM10.6656 10.2533C11.8514 10.2832 11.9828 11.4566 10.6637 11.6442L10.6656 10.2533Z" fill="black"/>
<circle cx="10" cy="10" r="9" stroke="black" stroke-width="2"/>
</svg>
