<svg width="24" height="24" viewBox="0 0 24 24" fill="none" xmlns="http://www.w3.org/2000/svg">
<path d="M22.5034 12.535C22.2477 12.535 21.992 12.4327 21.7875 12.2537L11.7647 2.46097L1.74192 12.2537C1.33283 12.6372 0.693618 12.6372 0.284525 12.2281C-0.0989999 11.819 -0.0989999 11.1798 0.310093 10.7707L11.0488 0.287646C11.4579 -0.0958819 12.0715 -0.0958819 12.4806 0.287646L23.2193 10.7707C23.6284 11.1543 23.6284 11.819 23.2449 12.2281C23.0403 12.4327 22.7591 12.535 22.5034 12.535ZM20.2534 22.5067V12.5094C20.2534 11.9469 19.7932 11.4866 19.2307 11.4866C18.6682 11.4866 18.2079 11.9469 18.2079 12.5094V21.4839H15.0119V16.0123C15.0119 15.2708 14.3982 14.6571 13.6568 14.6571H9.87265C9.13117 14.6571 8.51753 15.2708 8.51753 16.0123V21.4839H5.32149V12.5094C5.32149 11.9469 4.86126 11.4866 4.29875 11.4866C3.73625 11.4866 3.27602 11.9469 3.27602 12.5094V22.5067C3.27602 23.0692 3.73625 23.5294 4.29875 23.5294H9.54026C10.1028 23.5294 10.563 23.0692 10.563 22.5067V16.7026H12.992V22.5067C12.992 23.0692 13.4522 23.5294 14.0147 23.5294H19.2562C19.8187 23.5294 20.2534 23.0692 20.2534 22.5067Z" fill="#725743"/>
</svg>
