<svg width="20" height="25" viewBox="0 0 20 25" fill="none" xmlns="http://www.w3.org/2000/svg">
<path d="M14.1938 24.1102L1.57633 24.1096C1.42315 24.1093 1.2344 24.1289 1.08735 24.0839C0.169909 23.8027 0.00160819 23.2002 0.000603104 22.3789L0 19.8788C0.000502543 19.1135 0.029851 18.473 0.186393 17.7162C0.628028 15.5814 1.18485 15.4165 3.18456 14.6299L6.91368 13.1957C7.135 13.1071 7.35341 13.0034 7.58473 12.9441L7.60031 12.9412C7.75549 12.9333 8.52087 13.6431 8.67892 13.7699L9.95673 14.7325C10.5228 14.3635 11.0601 13.9359 11.5952 13.5237C11.8467 13.3299 12.0935 13.099 12.3723 12.9477C12.7423 13.0607 13.0957 13.2101 13.4553 13.3516L16.4087 14.4708C17.1179 14.7411 18.4102 15.1659 18.9584 15.7006C19.7061 16.43 19.9883 18.299 20 19.3182L19.9994 22.5114C19.997 23.2887 19.6774 23.9379 18.8272 24.0949C18.6666 24.1246 18.4868 24.1095 18.3232 24.1096L14.1938 24.1102ZM13.3492 14.2001L12.2172 15.5892C11.9295 15.9519 11.673 16.3351 11.3366 16.6568C11.1988 16.5682 11.1281 16.4946 11.0507 16.3492L10.7553 16.8284L12.1336 23.2088L16.2936 23.2104L18.492 23.21C19.1052 23.2079 19.1445 22.9446 19.1453 22.3634L19.1441 19.1606C19.1316 18.4696 18.8857 16.808 18.3896 16.3319C18.0209 15.978 17.0407 15.6713 16.5653 15.4823C15.4963 15.0572 14.3913 14.6868 13.3492 14.2001ZM6.63186 14.2168L2.31974 15.9358C1.75935 16.181 1.49783 16.3596 1.27043 16.9579C0.955234 17.7873 0.849398 18.6729 0.848191 19.5537L0.847941 21.9327C0.848142 22.2779 0.746025 23.0066 1.15102 23.1715L1.20208 23.1887C1.30028 23.2197 1.42652 23.2101 1.52909 23.2103L3.80902 23.2104L7.5197 23.2101C7.90188 23.2101 7.84942 23.304 7.92852 22.9547L9.24674 16.7728C9.15754 16.6108 9.06366 16.4657 8.95155 16.3187C8.89496 16.4642 8.84033 16.568 8.73334 16.6827C8.48895 16.5408 8.30884 16.2552 8.13366 16.0365L7.41864 15.1513C7.17521 14.8416 6.92946 14.4756 6.63186 14.2168Z" fill="#725743"/>
<path d="M10.2301 12.8433C9.10871 12.8982 8.28781 12.5382 7.44555 11.7784C5.53714 10.0568 4.17791 6.34033 4.90479 3.84098C5.02942 3.41256 5.12852 3.25723 5.20732 2.78946C5.49603 1.07548 8.20519 0.0687039 9.70156 0.00229788C11.081 -0.0262214 12.5226 0.202858 13.6056 1.13225C14.0347 1.50053 14.4465 2.02906 14.6182 2.57206C14.6907 2.80102 14.7252 3.04053 14.7978 3.26919C14.8599 3.46498 14.9368 3.65554 14.9908 3.85405C15.4341 5.48344 15.0391 7.3235 14.4116 8.84571C13.7025 10.5662 12.2684 12.6991 10.2301 12.8433ZM12.97 3.42633C11.7277 3.58911 10.8369 4.68631 9.82579 4.81099C8.98353 4.91482 8.11097 4.58067 7.37057 4.21899C6.65173 3.86787 6.21231 3.63278 5.92224 4.53535C5.31954 6.41063 6.18778 9.0719 7.44012 10.5811C8.02392 11.2555 8.72598 11.8881 9.66076 11.9604C12.3955 12.172 14.0417 8.38136 14.1939 6.06629C14.2414 5.34389 14.194 3.46357 13.1497 3.42181L12.97 3.42633Z" fill="#725743"/>
</svg>
