<svg width="24" height="24" viewBox="0 0 24 24" fill="none" xmlns="http://www.w3.org/2000/svg">
<path fill-rule="evenodd" clip-rule="evenodd" d="M0.0823529 17.9353C0.0294117 18.0235 0 18.1294 0 18.2353V22.9412C0 23.2647 0.264706 23.5294 0.588235 23.5294H7.64706C7.97059 23.5294 8.23529 23.2647 8.23529 22.9412V18.2353C8.23529 18.1235 8.20588 18.0235 8.15294 17.9353L7.14706 16.1824C7.04118 16 6.84706 15.8882 6.63529 15.8882H1.59412C1.38235 15.8882 1.18824 16 1.08235 16.1824L0.0764707 17.9353H0.0823529ZM15.3765 17.9353C15.3235 18.0235 15.2941 18.1294 15.2941 18.2353V22.9412C15.2941 23.2647 15.5588 23.5294 15.8824 23.5294H22.9412C23.2647 23.5294 23.5294 23.2647 23.5294 22.9412V18.2353C23.5294 18.1235 23.5 18.0235 23.4471 17.9353L22.4412 16.1824C22.3353 16 22.1412 15.8882 21.9294 15.8882H16.8882C16.6765 15.8882 16.4824 16 16.3765 16.1824L15.3706 17.9353H15.3765ZM7.05882 18.8235V22.3529H1.17647V18.8235H7.05882ZM22.3529 18.8235V22.3529H16.4706V18.8235H22.3529ZM4.70588 21.7647H5.88235C6.20588 21.7647 6.47059 21.5 6.47059 21.1765C6.47059 20.8529 6.20588 20.5882 5.88235 20.5882H4.70588C4.38235 20.5882 4.11765 20.8529 4.11765 21.1765C4.11765 21.5 4.38235 21.7647 4.70588 21.7647ZM20 21.7647H21.1765C21.5 21.7647 21.7647 21.5 21.7647 21.1765C21.7647 20.8529 21.5 20.5882 21.1765 20.5882H20C19.6765 20.5882 19.4118 20.8529 19.4118 21.1765C19.4118 21.5 19.6765 21.7647 20 21.7647ZM17.2294 17.0588L16.8941 17.6471H18.8235V17.0588H17.2294ZM20 17.0588V17.6471H21.9294L21.5941 17.0588H20ZM1.93529 17.0588L1.6 17.6471H3.52941V17.0588H1.93529ZM4.70588 17.0588V17.6471H6.63529L6.3 17.0588H4.70588ZM9.37647 14.5C9.29412 14.2765 9.07647 14.1176 8.82353 14.1176C8.5 14.1176 8.23529 14.3824 8.23529 14.7059V15.8824C8.23529 16.2059 8.5 16.4706 8.82353 16.4706H10C10.3235 16.4706 10.5882 16.2059 10.5882 15.8824C10.5882 15.6294 10.4294 15.4176 10.2059 15.3294L11.0059 14.5294C11.2353 14.3 11.2353 13.9294 11.0059 13.6941C10.7765 13.4647 10.4059 13.4647 10.1706 13.6941L9.37059 14.4941L9.37647 14.5ZM13.3235 15.3294C13.1 15.4118 12.9412 15.6294 12.9412 15.8824C12.9412 16.2059 13.2059 16.4706 13.5294 16.4706H14.7059C15.0294 16.4706 15.2941 16.2059 15.2941 15.8824V14.7059C15.2941 14.3824 15.0294 14.1176 14.7059 14.1176C14.4529 14.1176 14.2412 14.2765 14.1529 14.5L13.3529 13.7C13.1235 13.4706 12.7529 13.4706 12.5176 13.7C12.2882 13.9294 12.2882 14.3 12.5176 14.5353L13.3176 15.3353L13.3235 15.3294ZM4.77059 3.84118C4.72941 3.92353 4.70588 4.01765 4.70588 4.11765V12.3529C4.70588 12.6765 4.97059 12.9412 5.29412 12.9412H18.2353C18.5588 12.9412 18.8235 12.6765 18.8235 12.3529V4.11765C18.8235 4.01765 18.8 3.92353 18.7588 3.84118L17 0.32353C16.9 0.12353 16.6941 0 16.4765 0H7.05882C6.83529 0 6.62941 0.12353 6.53529 0.32353L4.77647 3.84118H4.77059ZM5.88235 4.70588H17.6471V11.7647H5.88235V4.70588ZM7.05882 11.1765H8.82353C9.14706 11.1765 9.41176 10.9118 9.41176 10.5882C9.41176 10.2647 9.14706 10 8.82353 10H7.05882C6.73529 10 6.47059 10.2647 6.47059 10.5882C6.47059 10.9118 6.73529 11.1765 7.05882 11.1765ZM17.0588 8.82353C17.0588 8.5 16.7941 8.23529 16.4706 8.23529H13.5294C13.2059 8.23529 12.9412 8.5 12.9412 8.82353V10.5882C12.9412 10.9118 13.2059 11.1765 13.5294 11.1765H16.4706C16.7941 11.1765 17.0588 10.9118 17.0588 10.5882V8.82353ZM15.8824 9.41176V10H14.1176V9.41176H15.8824ZM7.05882 9.41176H8.23529C8.55882 9.41176 8.82353 9.14706 8.82353 8.82353C8.82353 8.5 8.55882 8.23529 8.23529 8.23529H7.05882C6.73529 8.23529 6.47059 8.5 6.47059 8.82353C6.47059 9.14706 6.73529 9.41176 7.05882 9.41176ZM12.3529 1.17647V3.52941H17.2824L16.1059 1.17647H12.3529ZM6.24706 3.52941H11.1765V1.17647H7.42353L6.24706 3.52941Z" fill="#725743"/>
</svg>
