<svg width="24" height="24" viewBox="0 0 24 24" fill="none" xmlns="http://www.w3.org/2000/svg">
<path d="M10.9297 5.88232V7.02522C10.4633 7.02522 8.36505 7.61438 8.36505 9.50332C8.36505 11.1837 9.87915 11.6412 10.9286 11.7913L10.9297 13.6902C10.1634 13.4734 10.0242 12.8888 9.91778 12.4056H8.23535C8.33951 14.2954 10.0135 15.1744 10.9297 15.3079V16.4706H12.5289V15.3255C13.7949 15.2587 15.2942 14.1748 15.2942 12.6891C15.2942 10.9876 13.8007 10.5046 12.5289 10.3748V8.63405C13.0294 8.66922 13.4198 9.16154 13.4622 9.66266H15.1279C15.1279 7.97469 13.5791 7.08676 12.5123 7.02522V5.88232H10.9297ZM10.9385 8.65055V10.0934C9.81113 10.0759 9.78921 8.85075 10.9385 8.65055ZM12.5478 12.0627C13.9429 12.0979 14.0974 13.4783 12.5456 13.699L12.5478 12.0627Z" fill="#725743"/>
<circle cx="11.7647" cy="11.7647" r="10.5882" stroke="#725743" stroke-width="2.35294"/>
</svg>
