<svg width="20" height="20" viewBox="0 0 20 20" fill="none" xmlns="http://www.w3.org/2000/svg">
<path fill-rule="evenodd" clip-rule="evenodd" d="M0.0699999 15.245C0.0249999 15.32 0 15.41 0 15.5V19.5C0 19.775 0.225 20 0.5 20H6.5C6.775 20 7 19.775 7 19.5V15.5C7 15.405 6.975 15.32 6.93 15.245L6.075 13.755C5.985 13.6 5.82 13.505 5.64 13.505H1.355C1.175 13.505 1.01 13.6 0.92 13.755L0.0650001 15.245H0.0699999ZM13.07 15.245C13.025 15.32 13 15.41 13 15.5V19.5C13 19.775 13.225 20 13.5 20H19.5C19.775 20 20 19.775 20 19.5V15.5C20 15.405 19.975 15.32 19.93 15.245L19.075 13.755C18.985 13.6 18.82 13.505 18.64 13.505H14.355C14.175 13.505 14.01 13.6 13.92 13.755L13.065 15.245H13.07ZM6 16V19H1V16H6ZM19 16V19H14V16H19ZM4 18.5H5C5.275 18.5 5.5 18.275 5.5 18C5.5 17.725 5.275 17.5 5 17.5H4C3.725 17.5 3.5 17.725 3.5 18C3.5 18.275 3.725 18.5 4 18.5ZM17 18.5H18C18.275 18.5 18.5 18.275 18.5 18C18.5 17.725 18.275 17.5 18 17.5H17C16.725 17.5 16.5 17.725 16.5 18C16.5 18.275 16.725 18.5 17 18.5ZM14.645 14.5L14.36 15H16V14.5H14.645ZM17 14.5V15H18.64L18.355 14.5H17ZM1.645 14.5L1.36 15H3V14.5H1.645ZM4 14.5V15H5.64L5.355 14.5H4ZM7.97 12.325C7.9 12.135 7.715 12 7.5 12C7.225 12 7 12.225 7 12.5V13.5C7 13.775 7.225 14 7.5 14H8.5C8.775 14 9 13.775 9 13.5C9 13.285 8.865 13.105 8.675 13.03L9.355 12.35C9.55 12.155 9.55 11.84 9.355 11.64C9.16 11.445 8.845 11.445 8.645 11.64L7.965 12.32L7.97 12.325ZM11.325 13.03C11.135 13.1 11 13.285 11 13.5C11 13.775 11.225 14 11.5 14H12.5C12.775 14 13 13.775 13 13.5V12.5C13 12.225 12.775 12 12.5 12C12.285 12 12.105 12.135 12.03 12.325L11.35 11.645C11.155 11.45 10.84 11.45 10.64 11.645C10.445 11.84 10.445 12.155 10.64 12.355L11.32 13.035L11.325 13.03ZM4.055 3.265C4.02 3.335 4 3.415 4 3.5V10.5C4 10.775 4.225 11 4.5 11H15.5C15.775 11 16 10.775 16 10.5V3.5C16 3.415 15.98 3.335 15.945 3.265L14.45 0.275C14.365 0.105 14.19 0 14.005 0H6C5.81 0 5.635 0.105 5.555 0.275L4.06 3.265H4.055ZM5 4H15V10H5V4ZM6 9.5H7.5C7.775 9.5 8 9.275 8 9C8 8.725 7.775 8.5 7.5 8.5H6C5.725 8.5 5.5 8.725 5.5 9C5.5 9.275 5.725 9.5 6 9.5ZM14.5 7.5C14.5 7.225 14.275 7 14 7H11.5C11.225 7 11 7.225 11 7.5V9C11 9.275 11.225 9.5 11.5 9.5H14C14.275 9.5 14.5 9.275 14.5 9V7.5ZM13.5 8V8.5H12V8H13.5ZM6 8H7C7.275 8 7.5 7.775 7.5 7.5C7.5 7.225 7.275 7 7 7H6C5.725 7 5.5 7.225 5.5 7.5C5.5 7.775 5.725 8 6 8ZM10.5 1V3H14.69L13.69 1H10.5ZM5.31 3H9.5V1H6.31L5.31 3Z" fill="#131313"/>
</svg>
