<svg width="24" height="24" viewBox="0 0 24 24" fill="none" xmlns="http://www.w3.org/2000/svg">
<path d="M16.9648 4.36426L8.69922 8.86914L8.49902 8.97852L8.70312 9.07812L11.6855 10.543L11.7402 10.5703L11.793 10.541L19.6104 6.28223L19.7676 6.19629L19.627 6.08594C18.8217 5.45314 17.9728 4.876 17.0791 4.36523L17.0225 4.33301L16.9648 4.36426ZM12.749 2.42383C12.1203 2.17289 11.4128 2.17258 10.7949 2.41895L9.2793 3.00391H9.27832C7.20787 3.81939 5.29438 4.93515 3.59766 6.31934L3.59082 6.32617C3.57915 6.3374 3.56764 6.34695 3.55273 6.35938L3.62598 6.44824L3.55176 6.35938L3.54297 6.36816L3.42383 6.48438L3.57324 6.55762L6.11816 7.80762L6.17285 7.83496L6.22656 7.80566L14.4707 3.3125L14.6895 3.19336L14.458 3.09961C14.4234 3.08564 14.3897 3.06961 14.3525 3.05273C14.3161 3.03619 14.2763 3.01896 14.2354 3.00293L12.748 2.42383H12.749ZM4.55273 9.39746L4.4873 9.36523L2.71387 8.49414L2.57324 8.4248L2.5459 8.5791C2.11996 10.9661 2.14732 13.4233 2.68066 15.748V15.749C2.7942 16.2659 3.07785 16.7398 3.4834 17.1035L3.48926 17.1094L3.49609 17.1133L3.5752 17.1729C5.2668 18.5594 7.18494 19.6818 9.27539 20.5088V20.5098L10.7754 21.0996C11.4146 21.3542 12.1172 21.3528 12.7549 21.1006C13.2996 20.8847 13.9133 21.1526 14.1279 21.6953C14.343 22.2392 14.077 22.8543 13.5332 23.0693C12.9633 23.2948 12.3643 23.4082 11.7656 23.4082C11.1671 23.4082 10.5685 23.2948 9.99805 23.0693L8.49707 22.4785H8.49609C6.24016 21.5856 4.16642 20.3786 2.33008 18.8896L2.25586 18.9805L2.33008 18.8887L2.31934 18.8818L2.2168 18.8076C1.40224 18.1333 0.833058 17.2101 0.614258 16.2129V16.2119C-0.0480268 13.3262 -0.0485893 10.241 0.616211 7.30078V7.2998C0.678859 7.01438 0.779399 6.73711 0.899414 6.46387C0.904933 6.45158 0.908214 6.44003 0.910156 6.43164C0.910431 6.43045 0.909911 6.42889 0.910156 6.42773C0.911603 6.42611 0.913518 6.42467 0.915039 6.42285C0.920672 6.41607 0.926985 6.40565 0.933594 6.39355L0.93457 6.39453L0.938477 6.38672C1.18872 5.84491 1.53617 5.34497 1.97559 4.92871L2.16992 4.75586L2.17578 4.75C2.1896 4.73663 2.20275 4.72628 2.2207 4.71094C4.0963 3.17366 6.21182 1.93463 8.50977 1.03027L10.0186 0.450195L10.0205 0.449219C11.1238 0.00686398 12.407 0.00578283 13.5254 0.455078H13.5273L15.0039 1.0293V1.03027C17.1647 1.87486 19.1644 3.01507 20.9551 4.4248L21.3105 4.71094C21.3485 4.74171 21.3851 4.77561 21.418 4.81152L21.417 4.8125L21.4277 4.82129C22.1803 5.47246 22.7061 6.34984 22.916 7.30664L22.917 7.30859C23.2428 8.72163 23.4092 10.2239 23.4092 11.7617C23.4092 11.9735 23.4058 12.1855 23.3994 12.3975L23.3701 13.0342C23.3344 13.6181 22.8431 14.0575 22.2471 14.0254H22.248C21.6643 13.9891 21.2207 13.4874 21.2568 12.9033C21.2799 12.5232 21.291 12.1419 21.291 11.7617C21.291 10.5177 21.1533 9.31165 20.915 8.15527L20.8838 8L20.7441 8.0752L12.2725 12.6904C12.1146 12.7763 11.9403 12.8203 11.7656 12.8203C11.6066 12.8203 11.4466 12.7834 11.2988 12.7119L6.83984 10.5215L6.6709 10.4385V12.9688C6.6709 13.554 6.1961 14.0273 5.61133 14.0273C5.02677 14.0271 4.55273 13.5539 4.55273 12.9688V9.39746Z" fill="#725743" stroke="#725743" stroke-width="0.235294"/>
</svg>
