<svg width="70" height="25" viewBox="0 0 70 25" fill="none" xmlns="http://www.w3.org/2000/svg">
<path d="M18.8759 19.1788L19.2138 18.2952L18.1034 17.7235L17.8621 18.659L17.6207 19.2308L17.2828 19.8545L16.9931 20.4782L16.6069 20.9979L16.0276 21.6216L15.5448 22.0894L14.9655 22.5052L14.4828 22.817L13.6621 23.1289L12.4552 23.3368L11.2 23.4407L12.2138 23.4927H13.2759L14.2897 23.3368L15.1586 23.0249L16.3655 22.4012L17.4759 21.5696L18.2 20.5301L18.8759 19.1788Z" fill="url(#paint0_linear_113_72)"/>
<path d="M10.4759 0.10395L11.5379 0L9.12414 0.10395L7.82069 0.363825L6.56552 0.883576L5.74483 1.35135L4.77931 2.02703L4.10345 2.54678L3.37931 3.27443L2.75172 3.89813L2.22069 4.62578L1.78621 5.24948L1.44828 5.87318L1.11034 6.60083L0.772414 7.48441L0.482759 8.36798L0.337931 9.14761L0.144828 10.1351L0.0482759 10.9148L0 11.7983V12.6299V13.5655L0.0482759 14.501L0.193103 15.3846L0.386207 16.1642L0.675862 17.0998L0.965517 17.8794L1.25517 18.6071L1.5931 19.2308L1.97931 19.9064L2.41379 20.5821L2.70345 20.9459L2.94483 21.2578L3.18621 21.5177L3.47586 21.8295L3.76552 22.0894L4.34483 22.5572L4.77931 22.869L5.26207 23.2328L5.69655 23.4927L6.08276 23.7006L6.51724 23.9085L7.04828 24.1684L7.67586 24.3763L8.01379 24.4802L8.54483 24.6362L9.9931 24.896L9.07586 24.6362L7.91724 24.1684L7 23.5967L6.17931 22.921L5.31035 22.0894L4.48966 21.1538L3.66897 19.7505L3.08966 18.5031L2.84828 17.7755L2.6069 17.0478L2.41379 16.3202L2.26897 15.7484L2.17241 15.0728L2.12414 14.501V13.5655V12.2661L2.22069 10.7588L2.41379 9.14761L2.75172 7.74428L3.13793 6.54886L3.66897 5.24948L4.44138 3.89813L5.21379 2.9106L5.98621 2.18295L6.95172 1.35135L7.91724 0.779626L9.22069 0.363825L10.4759 0.10395Z" fill="url(#paint1_linear_113_72)"/>
<path d="M14.4345 1.76715L13.6345 1.56789L12.9147 1.50589L14.2897 1.92308L15.0621 2.2869L15.4966 2.54678L16.1241 3.1185L16.6069 3.63825L17.0414 4.20998L17.6207 5.09355L18.0069 5.87318L18.3448 6.60083L18.6345 7.27651L18.9724 8.21206H19.4552L19.2621 7.64033L19.1655 7.32848L18.8276 6.49688L18.5862 5.87318L18.2 5.04158L17.7655 4.31393L17.1379 3.43035L16.6069 2.85863L15.7862 2.2869L14.4345 1.76715Z" fill="url(#paint2_linear_113_72)"/>
<path d="M19.4552 8.21206H19.8897L19.6 0.467775L18.4897 0.779626L17.7172 0.935551H16.9931L16.0276 0.623701L14.9655 0.363825L13.469 0.10395L12.5517 0H11.5379L10.4759 0.10395L9.22069 0.363825L7.91724 0.779626L6.95172 1.35135L5.98621 2.18295L5.21379 2.9106L4.44138 3.89813L3.66897 5.24948L3.13793 6.54886L2.75172 7.74428L2.41379 9.14761L2.22069 10.7588L2.12414 12.2661V13.5655V14.501L2.17241 15.0728L2.26897 15.7484L2.41379 16.3202L2.6069 17.0478L2.84828 17.7755L3.08966 18.5031L3.66897 19.7505L4.48966 21.1538L5.31035 22.0894L6.17931 22.921L7 23.5967L7.91724 24.1684L9.07586 24.6362L9.9931 24.896L10.7172 25H13.3241L14.5793 24.7921L15.6414 24.4802L16.6069 24.0125L17.6207 23.3888L18.5379 22.6091L19.2138 21.8815L19.7448 21.1019L20.1793 20.3742L20.7103 19.1788L19.2138 18.2952L18.8759 19.1788L18.2 20.5301L17.4759 21.5696L16.3655 22.4012L15.1586 23.0249L14.2897 23.3368L13.2759 23.4927H12.2138L11.2 23.4407L10.5241 23.2848L9.51035 22.817L8.44828 22.0894L7.91724 21.5177L7.24138 20.6341L6.56552 19.4906L6.13103 18.3472L5.74483 17.2037L5.35862 15.3846L5.21379 13.7734V11.6944L5.31035 10.1871L5.6 8.31601L6.13103 6.44491L6.95172 4.5738L8.11035 3.06653L9.17241 2.2869L10.1379 1.76715L10.8138 1.55925L12.069 1.4553L12.9147 1.50589L13.6345 1.56789L14.4345 1.76715L15.7862 2.2869L16.6069 2.85863L17.1379 3.43035L17.7655 4.31393L18.2 5.04158L18.5862 5.87318L18.8276 6.49688L19.1655 7.32848L19.2621 7.64033L19.4552 8.21206Z" fill="white"/>
<path d="M25.4896 24.0125V24.6362H29.3517V0.415817H25.3931V1.03952H25.5862L25.9241 1.14347L26.262 1.35137L26.5517 1.55927L26.8413 1.81914L27.131 2.18297L27.3241 2.54679L27.4207 2.91062L27.3724 22.0894C27.3724 22.1579 27.3574 22.2255 27.3286 22.2876L27.2275 22.5052L27.0344 22.869L26.9892 22.9502C26.9231 23.0689 26.8429 23.1793 26.7504 23.2789L26.6 23.4408L26.262 23.7006L25.8758 23.9085L25.4896 24.0125Z" fill="url(#paint3_linear_113_72)"/>
<path d="M29.3517 0.415817V24.6362H41.5655L42.2896 17.3597H41.8551L41.5655 18.3472L41.3724 18.867L41.1793 19.3867L40.9379 19.9065L40.7448 20.3223L40.5034 20.79L40.2138 21.3618L39.9724 21.7256L39.6827 22.1414L39.3931 22.4532L39.0069 22.7131L38.5241 22.869L38.0413 22.973H33.7931H32.2482V3.06655L32.3448 2.54679L32.6827 1.92309L33.0689 1.50729L33.5517 1.19544L33.9379 1.03952H34.2758V0.415817H29.3517Z" fill="white"/>
<path d="M41.5655 18.3472L41.8551 17.3597H41.3724L40.9379 18.3992L40.6482 19.0229L40.3586 19.5426L40.0689 20.1144L39.8275 20.4782L39.5379 20.894L39.2482 21.2578L38.9586 21.5697L38.6207 21.8295L38.3793 21.9855L37.9448 22.2453L37.3655 22.4532L36.7862 22.6092L36.1586 22.7131L35.6276 22.7651L35.0965 22.8171L34.6138 22.869L33.7931 22.973H38.0413L38.5241 22.869L39.0069 22.7131L39.3931 22.4532L39.6827 22.1414L39.9724 21.7256L40.2138 21.3618L40.5034 20.79L40.7448 20.3223L40.9379 19.9065L41.1793 19.3867L41.3724 18.867L41.5655 18.3472Z" fill="url(#paint4_linear_113_72)"/>
<path d="M46.3447 24.5842H50.2068V0.519767H46.3447V0.987543H46.6344L46.924 1.03952L47.1654 1.19544L47.4551 1.45532L47.6965 1.76717L47.9378 2.07902L48.1309 2.39087L48.2758 2.65074L48.324 2.96259V22.1934L48.2758 22.4532L48.1792 22.7131L48.0344 22.973L47.8896 23.1809L47.6482 23.4408L47.5033 23.5447L47.1654 23.7526L46.9723 23.8566L46.6827 23.9605H46.3447V24.5842Z" fill="url(#paint5_linear_113_72)"/>
<path d="M63.0965 11.5905V13.1497L63.0482 22.1934L62.9033 22.5572L62.662 22.973L62.4689 23.2329L62.2275 23.4927L61.9378 23.7006L61.6965 23.8566L61.4068 23.9605H60.9723V24.6362H64.9792V0.415817H61.0206V0.935568H61.3585L61.6482 1.03952L62.1309 1.35137L62.5171 1.87112L62.8068 2.28692L62.9999 2.75469V3.22247L63.0965 11.5905Z" fill="url(#paint6_linear_113_72)"/>
<path d="M50.2068 0.519767V24.5842H55.1309V24.0125H54.7447L54.4068 23.9085L54.0206 23.5967L53.7309 23.2848L53.4896 22.973L53.2965 22.6092L53.2482 22.1934V13.1497H63.0965V11.5905H53.2482V2.96259L53.3447 2.39087L53.5861 1.92309L53.8758 1.55927L54.2137 1.29939L54.5999 1.09149L54.9378 0.987543H55.1792V0.519767H50.2068Z" fill="white"/>
<path d="M69.9999 24.6362V24.0645L69.5654 23.9605L69.2275 23.8046L68.8413 23.5967L68.5034 23.2848L68.2137 22.973L68.0689 22.6611L67.924 22.1934V2.96259L68.1171 2.39087L68.4068 1.92309L68.7447 1.55927L68.9861 1.35137L69.324 1.14347L69.6137 1.03952H69.9516V0.415817H64.9792V24.6362H69.9999Z" fill="white"/>
<defs>
<linearGradient id="paint0_linear_113_72" x1="10.3552" y1="0" x2="10.3552" y2="25" gradientUnits="userSpaceOnUse">
<stop stop-color="#D7B881"/>
<stop offset="0.225985" stop-color="#A87536"/>
</linearGradient>
<linearGradient id="paint1_linear_113_72" x1="10.3552" y1="0" x2="10.3552" y2="25" gradientUnits="userSpaceOnUse">
<stop stop-color="#D7B881"/>
<stop offset="1" stop-color="#A87536"/>
</linearGradient>
<linearGradient id="paint2_linear_113_72" x1="10.3552" y1="0" x2="10.3552" y2="25" gradientUnits="userSpaceOnUse">
<stop stop-color="#D7B881"/>
<stop offset="1" stop-color="#737373"/>
</linearGradient>
<linearGradient id="paint3_linear_113_72" x1="33.8413" y1="0.415817" x2="33.8413" y2="24.6362" gradientUnits="userSpaceOnUse">
<stop stop-color="#D7B881"/>
<stop offset="1" stop-color="#A87536"/>
</linearGradient>
<linearGradient id="paint4_linear_113_72" x1="33.8413" y1="0.415817" x2="33.8413" y2="24.6362" gradientUnits="userSpaceOnUse">
<stop stop-color="#D7B881"/>
<stop offset="1" stop-color="#A87536"/>
</linearGradient>
<linearGradient id="paint5_linear_113_72" x1="58.1723" y1="0.415817" x2="58.1723" y2="24.6362" gradientUnits="userSpaceOnUse">
<stop stop-color="#D7B881"/>
<stop offset="1" stop-color="#9B6D39"/>
</linearGradient>
<linearGradient id="paint6_linear_113_72" x1="58.1723" y1="0.415817" x2="58.1723" y2="24.6362" gradientUnits="userSpaceOnUse">
<stop stop-color="#D7B881"/>
<stop offset="1" stop-color="#9B6D39"/>
</linearGradient>
</defs>
</svg>
