<svg width="480" height="481" viewBox="0 0 480 481" fill="none" xmlns="http://www.w3.org/2000/svg">
<ellipse cx="240.324" cy="240.506" rx="188.009" ry="186.737" fill="url(#paint0_linear_3_7)"/>
<path d="M179.653 255.583L180.924 252.495L176.746 250.497L175.838 253.766L174.93 255.764L173.658 257.944L172.568 260.124L171.115 261.941L168.935 264.12L167.119 265.755L164.939 267.208L163.122 268.298L160.034 269.388L155.493 270.115L150.77 270.478L154.585 270.66H158.581L162.396 270.115L165.666 269.025L170.207 266.845L174.385 263.939L177.11 260.306L179.653 255.583Z" fill="url(#paint1_linear_3_7)"/>
<path d="M148.045 188.917L152.042 188.554L142.959 188.917L138.055 189.825L133.332 191.642L130.244 193.277L126.611 195.638L124.067 197.454L121.343 199.998L118.981 202.177L116.983 204.721L115.348 206.9L114.077 209.08L112.805 211.623L111.534 214.711L110.444 217.799L109.899 220.524L109.172 223.976L108.809 226.7L108.627 229.788V232.695V235.964L108.809 239.234L109.354 242.322L110.08 245.047L111.17 248.317L112.26 251.041L113.35 253.585L114.622 255.764L116.075 258.126L117.71 260.487L118.8 261.759L119.708 262.849L120.616 263.757L121.706 264.847L122.796 265.755L124.976 267.39L126.611 268.48L128.427 269.752L130.062 270.66L131.515 271.386L133.15 272.113L135.148 273.021L137.51 273.748L138.781 274.111L140.779 274.656L146.229 275.564L142.778 274.656L138.418 273.021L134.967 271.023L131.878 268.662L128.609 265.755L125.521 262.486L122.433 257.581L120.253 253.221L119.345 250.678L118.436 248.135L117.71 245.592L117.165 243.594L116.801 241.232L116.62 239.234V235.964V231.423L116.983 226.155L117.71 220.524L118.981 215.62L120.434 211.442L122.433 206.9L125.339 202.177L128.245 198.726L131.152 196.183L134.785 193.277L138.418 191.278L143.322 189.825L148.045 188.917Z" fill="url(#paint2_linear_3_7)"/>
<path d="M162.941 194.73L159.931 194.033L157.222 193.817L162.396 195.275L165.302 196.546L166.937 197.454L169.299 199.453L171.115 201.269L172.75 203.267L174.93 206.355L176.383 209.08L177.654 211.623L178.744 213.985L180.016 217.254H181.832L181.106 215.256L180.743 214.166L179.471 211.26L178.563 209.08L177.11 206.174L175.475 203.631L173.113 200.543L171.115 198.544L168.027 196.546L162.941 194.73Z" fill="url(#paint3_linear_3_7)"/>
<path d="M181.832 217.254H183.467L182.377 190.188L178.199 191.278L175.293 191.823H172.568L168.935 190.733L164.939 189.825L159.308 188.917L155.856 188.554H152.042L148.045 188.917L143.322 189.825L138.418 191.278L134.785 193.277L131.152 196.183L128.245 198.726L125.339 202.177L122.433 206.9L120.434 211.442L118.981 215.62L117.71 220.524L116.983 226.155L116.62 231.423V235.964V239.234L116.801 241.232L117.165 243.594L117.71 245.592L118.436 248.135L119.345 250.678L120.253 253.221L122.433 257.581L125.521 262.486L128.609 265.755L131.878 268.662L134.967 271.023L138.418 273.021L142.778 274.656L146.229 275.564L148.954 275.928H158.763L163.486 275.201L167.482 274.111L171.115 272.476L174.93 270.296L178.381 267.572L180.924 265.029L182.922 262.304L184.557 259.761L186.555 255.583L180.924 252.495L179.653 255.583L177.11 260.306L174.385 263.939L170.207 266.845L165.666 269.025L162.396 270.115L158.581 270.66H154.585L150.77 270.478L148.227 269.933L144.412 268.298L140.416 265.755L138.418 263.757L135.875 260.669L133.332 256.673L131.697 252.676L130.244 248.68L128.79 242.322L128.245 236.691V229.425L128.609 224.157L129.699 217.618L131.697 211.078L134.785 204.539L139.144 199.271L143.141 196.546L146.774 194.73L149.317 194.003L154.04 193.64L157.222 193.817L159.931 194.033L162.941 194.73L168.027 196.546L171.115 198.544L173.113 200.543L175.475 203.631L177.11 206.174L178.563 209.08L179.471 211.26L180.743 214.166L181.106 215.256L181.832 217.254Z" fill="white"/>
<path d="M204.539 272.476V274.656H219.071V190.007H204.175V192.187H204.902L206.174 192.55L207.445 193.277L208.535 194.003L209.625 194.911L210.715 196.183L211.441 197.454L211.805 198.726L211.623 265.755C211.623 265.994 211.567 266.23 211.461 266.443L211.078 267.208L210.352 268.48L210.198 268.736C209.938 269.169 209.626 269.569 209.269 269.926L208.717 270.478L207.445 271.386L205.992 272.113L204.539 272.476Z" fill="url(#paint4_linear_3_7)"/>
<path d="M219.071 190.007V274.656H265.028L267.753 249.225H266.118L265.028 252.676L264.302 254.493L263.575 256.309L262.667 258.126L261.94 259.579L261.032 261.214L259.942 263.212L259.034 264.484L257.944 265.937L256.854 267.027L255.401 267.935L253.584 268.48L251.768 268.843H235.783H229.97V199.271L230.333 197.454L231.605 195.275L233.058 193.821L234.874 192.732L236.328 192.187H237.599V190.007H219.071Z" fill="white"/>
<path d="M265.028 252.676L266.118 249.225H264.302L262.667 252.858L261.577 255.038L260.487 256.854L259.397 258.852L258.489 260.124L257.399 261.577L256.309 262.849L255.219 263.939L253.948 264.847L253.04 265.392L251.405 266.3L249.225 267.027L247.045 267.572L244.684 267.935L242.685 268.117L240.687 268.298L238.871 268.48L235.783 268.843H251.768L253.584 268.48L255.401 267.935L256.854 267.027L257.944 265.937L259.034 264.484L259.942 263.212L261.032 261.214L261.94 259.579L262.667 258.126L263.575 256.309L264.302 254.493L265.028 252.676Z" fill="url(#paint5_linear_3_7)"/>
<path d="M283.012 274.474H297.544V190.37H283.012V192.005H284.102L285.192 192.187L286.1 192.732L287.19 193.64L288.098 194.73L289.006 195.82L289.733 196.91L290.278 197.818L290.46 198.908V266.119L290.278 267.027L289.915 267.935L289.37 268.843L288.825 269.57L287.917 270.478L287.372 270.841L286.1 271.568L285.373 271.931L284.284 272.295H283.012V274.474Z" fill="url(#paint6_linear_3_7)"/>
<path d="M346.045 229.062V234.511L345.863 266.119L345.318 267.39L344.41 268.843L343.683 269.752L342.775 270.66L341.685 271.386L340.777 271.931L339.687 272.295H338.052V274.656H353.129V190.007H338.234V191.823H339.505L340.595 192.187L342.412 193.277L343.865 195.093L344.955 196.546L345.682 198.181V199.816L346.045 229.062Z" fill="url(#paint7_linear_3_7)"/>
<path d="M297.544 190.37V274.474H316.072V272.476H314.619L313.348 272.113L311.894 271.023L310.805 269.933L309.896 268.843L309.17 267.572L308.988 266.119V234.511H346.045V229.062H308.988V198.908L309.351 196.91L310.26 195.275L311.35 194.003L312.621 193.095L314.074 192.368L315.346 192.005H316.254V190.37H297.544Z" fill="white"/>
<path d="M372.021 274.656V272.658L370.386 272.295L369.114 271.75L367.661 271.023L366.39 269.933L365.3 268.843L364.755 267.753L364.21 266.119V198.908L364.937 196.91L366.026 195.275L367.298 194.003L368.206 193.277L369.478 192.55L370.568 192.187H371.839V190.007H353.129V274.656H372.021Z" fill="white"/>
<path d="M151.808 393.151C118.479 373.908 92.4477 344.164 77.7319 308.507C63.0162 272.85 60.4337 233.263 70.3831 195.855C80.3324 158.447 102.261 125.297 132.784 101.521C163.307 77.7446 200.728 64.6633 239.274 64.2958C277.819 63.9283 315.345 76.2949 346.062 99.4874C376.779 122.68 398.979 155.409 409.236 192.624C419.493 229.84 417.237 269.473 402.817 305.407C388.396 341.342 362.613 371.581 329.444 391.457" stroke="url(#paint8_linear_3_7)" stroke-width="4.35962" stroke-miterlimit="16"/>
<path d="M162.057 365.151L159.489 361.992L164.624 365.151L170.351 368.706L177.065 372.261L182.594 374.433L187.926 376.408L193.061 377.79L200.17 379.172L205.7 379.962L211.426 380.16H219.326L226.83 379.37L234.137 378.975L240.061 379.37L244.603 379.765L249.342 380.555L253.687 381.937L263.758 385.887L260.006 382.925L256.057 380.555L251.515 378.58L246.578 376.803L241.443 375.42L235.519 374.433L231.372 374.235H208.464L203.922 373.84L201.158 373.051V372.261L203.527 369.496L206.489 366.534L210.242 363.572L214.389 361.004L217.943 359.227L223.275 357.252L229.002 355.87L235.716 355.672L241.048 355.87L244.603 356.265L251.12 358.042L256.057 359.819L261.191 362.189L266.128 364.756L271.263 367.324L275.805 369.496L280.544 371.273L285.086 372.261L288.838 372.656H294.565L298.712 372.261L303.254 371.471L312.141 368.114L308.586 373.248L304.242 378.185L299.7 382.135L295.158 385.887L291.406 388.454L284.099 392.799L277.977 396.156L271.46 398.525L265.733 400.303L256.649 402.475L253.095 402.87L247.565 403.265L231.964 403.067L228.805 402.475L225.25 401.685L222.09 400.895L218.141 399.315L214.784 397.736L212.019 396.353L208.859 394.181L206.489 392.404L204.12 389.836L201.75 387.269L200.565 386.874L199.38 386.677L196.221 385.887L190.296 383.912L185.952 381.937L179.04 378.58L173.905 375.42L168.771 371.471L165.019 368.311L162.057 365.151Z" fill="white" stroke="black" stroke-width="0.394959"/>
<path d="M114.772 325.361V305.808H121.932C123.319 305.808 124.468 306.038 125.378 306.496C126.288 306.948 126.969 307.562 127.421 308.338C127.873 309.108 128.099 309.977 128.099 310.945C128.099 311.759 127.95 312.447 127.65 313.007C127.351 313.561 126.95 314.006 126.448 314.343C125.951 314.674 125.404 314.916 124.805 315.069V315.26C125.455 315.292 126.088 315.502 126.705 315.89C127.329 316.272 127.845 316.816 128.252 317.523C128.659 318.229 128.863 319.088 128.863 320.1C128.863 321.099 128.627 321.997 128.156 322.792C127.692 323.582 126.973 324.209 125.999 324.673C125.025 325.131 123.781 325.361 122.266 325.361H114.772ZM117.722 322.831H121.98C123.392 322.831 124.404 322.557 125.015 322.01C125.626 321.462 125.932 320.778 125.932 319.957C125.932 319.34 125.776 318.773 125.464 318.258C125.152 317.742 124.707 317.332 124.128 317.026C123.555 316.721 122.874 316.568 122.085 316.568H117.722V322.831ZM117.722 314.267H121.674C122.336 314.267 122.931 314.14 123.459 313.885C123.994 313.631 124.417 313.274 124.729 312.816C125.047 312.351 125.206 311.804 125.206 311.174C125.206 310.365 124.923 309.688 124.357 309.14C123.79 308.593 122.921 308.319 121.75 308.319H117.722V314.267ZM132.362 325.361V305.808H144.62V308.348H135.312V314.305H143.981V316.835H135.312V322.821H144.735V325.361H132.362ZM148.561 325.361V305.808H155.721C157.108 305.808 158.257 306.038 159.167 306.496C160.078 306.948 160.759 307.562 161.211 308.338C161.662 309.108 161.888 309.977 161.888 310.945C161.888 311.759 161.739 312.447 161.44 313.007C161.14 313.561 160.74 314.006 160.237 314.343C159.74 314.674 159.193 314.916 158.595 315.069V315.26C159.244 315.292 159.877 315.502 160.494 315.89C161.118 316.272 161.634 316.816 162.041 317.523C162.448 318.229 162.652 319.088 162.652 320.1C162.652 321.099 162.417 321.997 161.946 322.792C161.481 323.582 160.762 324.209 159.788 324.673C158.814 325.131 157.57 325.361 156.055 325.361H148.561ZM151.511 322.831H155.769C157.182 322.831 158.194 322.557 158.805 322.01C159.416 321.462 159.721 320.778 159.721 319.957C159.721 319.34 159.565 318.773 159.253 318.258C158.942 317.742 158.496 317.332 157.917 317.026C157.344 316.721 156.663 316.568 155.874 316.568H151.511V322.831ZM151.511 314.267H155.463C156.125 314.267 156.72 314.14 157.249 313.885C157.783 313.631 158.206 313.274 158.518 312.816C158.836 312.351 158.996 311.804 158.996 311.174C158.996 310.365 158.712 309.688 158.146 309.14C157.579 308.593 156.711 308.319 155.54 308.319H151.511V314.267ZM169.101 305.808V325.361H166.151V305.808H169.101ZM179.727 325.361H173.397V305.808H179.927C181.843 305.808 183.488 306.2 184.863 306.983C186.238 307.759 187.291 308.876 188.023 310.334C188.762 311.785 189.131 313.526 189.131 315.556C189.131 317.593 188.758 319.343 188.014 320.807C187.275 322.271 186.206 323.397 184.806 324.186C183.406 324.969 181.713 325.361 179.727 325.361ZM176.347 322.783H179.565C181.054 322.783 182.292 322.503 183.278 321.943C184.265 321.376 185.003 320.558 185.493 319.489C185.983 318.414 186.228 317.102 186.228 315.556C186.228 314.022 185.983 312.72 185.493 311.651C185.01 310.582 184.287 309.77 183.326 309.217C182.365 308.663 181.172 308.386 179.746 308.386H176.347V322.783ZM193.479 325.361H190.348L197.384 305.808H200.792L207.828 325.361H204.697L199.169 309.36H199.017L193.479 325.361ZM194.004 317.704H204.162V320.186H194.004V317.704ZM221.158 310.945C221.057 310.041 220.637 309.341 219.898 308.844C219.16 308.342 218.231 308.09 217.111 308.09C216.309 308.09 215.615 308.217 215.029 308.472C214.444 308.72 213.989 309.064 213.664 309.503C213.346 309.936 213.187 310.429 213.187 310.983C213.187 311.447 213.295 311.848 213.511 312.186C213.734 312.523 214.024 312.806 214.38 313.035C214.743 313.258 215.131 313.446 215.545 313.599C215.959 313.745 216.356 313.866 216.738 313.962L218.648 314.458C219.271 314.611 219.911 314.818 220.567 315.079C221.222 315.339 221.83 315.683 222.39 316.11C222.95 316.536 223.402 317.064 223.746 317.694C224.096 318.324 224.271 319.079 224.271 319.957C224.271 321.064 223.984 322.048 223.412 322.907C222.845 323.766 222.021 324.444 220.939 324.941C219.863 325.437 218.562 325.685 217.034 325.685C215.57 325.685 214.304 325.453 213.234 324.988C212.165 324.524 211.328 323.865 210.724 323.012C210.119 322.153 209.785 321.134 209.721 319.957H212.681C212.738 320.664 212.967 321.252 213.368 321.723C213.775 322.188 214.294 322.535 214.924 322.764C215.561 322.987 216.258 323.098 217.015 323.098C217.849 323.098 218.59 322.968 219.24 322.707C219.895 322.439 220.411 322.07 220.786 321.599C221.162 321.122 221.349 320.565 221.349 319.928C221.349 319.349 221.184 318.875 220.853 318.506C220.528 318.137 220.086 317.831 219.526 317.589C218.972 317.348 218.345 317.134 217.645 316.95L215.335 316.32C213.769 315.893 212.528 315.266 211.611 314.439C210.701 313.611 210.246 312.517 210.246 311.155C210.246 310.028 210.552 309.045 211.163 308.205C211.774 307.365 212.601 306.712 213.645 306.248C214.689 305.777 215.866 305.541 217.177 305.541C218.501 305.541 219.669 305.773 220.681 306.238C221.699 306.703 222.501 307.342 223.087 308.157C223.673 308.965 223.978 309.894 224.003 310.945H221.158ZM234.911 325.361V305.808H247.169V308.348H237.861V314.305H246.53V316.835H237.861V322.821H247.284V325.361H234.911ZM251.11 305.808H254.69L260.915 321.007H261.144L267.368 305.808H270.948V325.361H268.142V311.212H267.96L262.194 325.332H259.864L254.098 311.202H253.917V325.361H251.11V305.808ZM295.584 311.985C295.4 311.406 295.152 310.887 294.84 310.429C294.534 309.965 294.168 309.57 293.742 309.245C293.315 308.914 292.829 308.663 292.281 308.491C291.74 308.319 291.145 308.233 290.496 308.233C289.395 308.233 288.402 308.517 287.517 309.083C286.633 309.649 285.932 310.48 285.417 311.575C284.908 312.663 284.653 313.997 284.653 315.575C284.653 317.16 284.911 318.5 285.426 319.594C285.942 320.689 286.648 321.52 287.546 322.086C288.443 322.652 289.465 322.936 290.61 322.936C291.673 322.936 292.599 322.719 293.389 322.286C294.184 321.854 294.798 321.243 295.231 320.453C295.67 319.658 295.89 318.722 295.89 317.647L296.654 317.79H291.059V315.355H298.744V317.58C298.744 319.222 298.394 320.648 297.694 321.857C297.001 323.06 296.04 323.989 294.811 324.645C293.589 325.3 292.189 325.628 290.61 325.628C288.841 325.628 287.288 325.221 285.952 324.406C284.621 323.591 283.584 322.436 282.839 320.94C282.095 319.438 281.722 317.656 281.722 315.594C281.722 314.035 281.939 312.634 282.371 311.393C282.804 310.152 283.412 309.099 284.195 308.233C284.984 307.361 285.91 306.696 286.973 306.238C288.042 305.773 289.21 305.541 290.477 305.541C291.533 305.541 292.517 305.697 293.427 306.009C294.343 306.321 295.158 306.763 295.871 307.336C296.59 307.909 297.185 308.59 297.656 309.379C298.127 310.162 298.445 311.031 298.611 311.985H295.584ZM302.489 325.361V305.808H314.748V308.348H305.439V314.305H314.108V316.835H305.439V322.821H314.862V325.361H302.489ZM318.688 325.361V305.808H325.657C327.172 305.808 328.429 306.069 329.429 306.591C330.434 307.113 331.185 307.836 331.682 308.758C332.178 309.675 332.426 310.735 332.426 311.938C332.426 313.134 332.175 314.187 331.672 315.098C331.176 316.001 330.425 316.705 329.419 317.207C328.42 317.71 327.163 317.962 325.648 317.962H320.368V315.422H325.381C326.335 315.422 327.112 315.285 327.71 315.012C328.315 314.738 328.757 314.34 329.037 313.818C329.317 313.296 329.457 312.669 329.457 311.938C329.457 311.199 329.314 310.56 329.028 310.019C328.747 309.478 328.305 309.064 327.701 308.778C327.102 308.485 326.316 308.338 325.342 308.338H321.638V325.361H318.688ZM328.34 316.539L333.171 325.361H329.81L325.075 316.539H328.34ZM337.668 325.361H334.536L341.572 305.808H344.981L352.017 325.361H348.885L343.358 309.36H343.205L337.668 325.361ZM338.193 317.704H348.351V320.186H338.193V317.704ZM354.84 325.361V305.808H357.79V322.821H366.65V325.361H354.84Z" fill="white"/>
<defs>
<linearGradient id="paint0_linear_3_7" x1="240.142" y1="-123.886" x2="240.142" y2="319.342" gradientUnits="userSpaceOnUse">
<stop offset="0.01" stop-color="#D7B881"/>
<stop offset="1" stop-color="#240D13"/>
</linearGradient>
<linearGradient id="paint1_linear_3_7" x1="147.591" y1="188.554" x2="147.591" y2="275.928" gradientUnits="userSpaceOnUse">
<stop stop-color="#D7B881"/>
<stop offset="0.225985" stop-color="#A87536"/>
</linearGradient>
<linearGradient id="paint2_linear_3_7" x1="147.591" y1="188.554" x2="147.591" y2="275.928" gradientUnits="userSpaceOnUse">
<stop stop-color="#D7B881"/>
<stop offset="1" stop-color="#A87536"/>
</linearGradient>
<linearGradient id="paint3_linear_3_7" x1="147.591" y1="188.554" x2="147.591" y2="275.928" gradientUnits="userSpaceOnUse">
<stop stop-color="#D7B881"/>
<stop offset="1" stop-color="#737373"/>
</linearGradient>
<linearGradient id="paint4_linear_3_7" x1="235.964" y1="190.007" x2="235.964" y2="274.656" gradientUnits="userSpaceOnUse">
<stop stop-color="#D7B881"/>
<stop offset="1" stop-color="#A87536"/>
</linearGradient>
<linearGradient id="paint5_linear_3_7" x1="235.964" y1="190.007" x2="235.964" y2="274.656" gradientUnits="userSpaceOnUse">
<stop stop-color="#D7B881"/>
<stop offset="1" stop-color="#A87536"/>
</linearGradient>
<linearGradient id="paint6_linear_3_7" x1="327.516" y1="190.007" x2="327.516" y2="274.656" gradientUnits="userSpaceOnUse">
<stop stop-color="#D7B881"/>
<stop offset="1" stop-color="#9B6D39"/>
</linearGradient>
<linearGradient id="paint7_linear_3_7" x1="327.516" y1="190.007" x2="327.516" y2="274.656" gradientUnits="userSpaceOnUse">
<stop stop-color="#D7B881"/>
<stop offset="1" stop-color="#9B6D39"/>
</linearGradient>
<linearGradient id="paint8_linear_3_7" x1="391.808" y1="328.045" x2="88.1919" y2="152.752" gradientUnits="userSpaceOnUse">
<stop stop-color="#D7B881"/>
<stop offset="1" stop-color="#9B6D39"/>
</linearGradient>
</defs>
</svg>
