<svg width="157" height="121" viewBox="0 0 157 121" fill="none" xmlns="http://www.w3.org/2000/svg">
<path d="M42.2331 108.044L42.9891 106.208L40.5048 105.02L39.9648 106.964L39.4247 108.152L38.6686 109.449L38.0205 110.745L37.1564 111.825L35.8603 113.121L34.7802 114.093L33.484 114.957L32.4039 115.605L30.5677 116.253L27.8673 116.685L25.059 116.901L27.3273 117.009H29.7036L31.9718 116.685L33.9161 116.037L36.6164 114.741L39.1007 113.013L40.7209 110.853L42.2331 108.044Z" fill="url(#paint0_linear_177_448)"/>
<path d="M23.4388 68.4036L25.8151 68.1876L20.4144 68.4036L17.4981 68.9437L14.6898 70.0238L12.8535 70.996L10.6933 72.4001L9.1811 73.4803L7.5609 74.9924L6.15674 76.2886L4.96859 77.8008L3.99648 79.0969L3.24039 80.3931L2.4843 81.9053L1.72821 83.7415L1.08013 85.5777L0.75609 87.1979L0.324039 89.2501L0.108013 90.8703L0 92.7066V94.4348V96.379L0.108013 98.3232L0.432052 100.159L0.864103 101.78L1.51218 103.724L2.16026 105.344L2.80834 106.856L3.56443 108.152L4.42853 109.557L5.40065 110.961L6.04872 111.717L6.58879 112.365L7.12885 112.905L7.77693 113.553L8.42501 114.093L9.72116 115.065L10.6933 115.713L11.7734 116.469L12.7455 117.009L13.6096 117.442L14.5817 117.874L15.7699 118.414L17.1741 118.846L17.9301 119.062L19.1183 119.386L22.3587 119.926L20.3064 119.386L17.7141 118.414L15.6619 117.225L13.8257 115.821L11.8814 114.093L10.0452 112.149L8.20898 109.233L6.91283 106.64L6.37276 105.128L5.8327 103.616L5.40065 102.104L5.07661 100.916L4.86058 99.5114L4.75257 98.3232V96.379V93.6787L4.96859 90.5463L5.40065 87.1979L6.15674 84.2815L7.02084 81.7973L8.20898 79.0969L9.93719 76.2886L11.6654 74.2363L13.3936 72.7242L15.5539 70.996L17.7141 69.8078L20.6305 68.9437L23.4388 68.4036Z" fill="url(#paint1_linear_177_448)"/>
<path d="M32.2959 71.8601L30.506 71.446L28.8955 71.3171L31.9718 72.1841L33.7 72.9402L34.6721 73.4803L36.0763 74.6684L37.1564 75.7485L38.1286 76.9367L39.4247 78.7729L40.2888 80.3931L41.0449 81.9053L41.693 83.3094L42.4491 85.2537H43.5292L43.0972 84.0655L42.8811 83.4174L42.125 81.6892L41.585 80.3931L40.7209 78.6649L39.7488 77.1527L38.3446 75.3165L37.1564 74.1283L35.3202 72.9402L32.2959 71.8601Z" fill="url(#paint2_linear_177_448)"/>
<path d="M43.5292 85.2537H44.5013L43.8532 69.1597L41.3689 69.8078L39.6407 70.1319H38.0205L35.8603 69.4838L33.484 68.9437L30.1356 68.4036L28.0834 68.1876H25.8151L23.4388 68.4036L20.6305 68.9437L17.7141 69.8078L15.5539 70.996L13.3936 72.7242L11.6654 74.2363L9.93719 76.2886L8.20898 79.0969L7.02084 81.7973L6.15674 84.2815L5.40065 87.1979L4.96859 90.5463L4.75257 93.6787V96.379V98.3232L4.86058 99.5114L5.07661 100.916L5.40065 102.104L5.8327 103.616L6.37276 105.128L6.91283 106.64L8.20898 109.233L10.0452 112.149L11.8814 114.093L13.8257 115.821L15.6619 117.225L17.7141 118.414L20.3064 119.386L22.3587 119.926L23.9789 120.142H29.8116L32.6199 119.71L34.9962 119.062L37.1564 118.09L39.4247 116.793L41.477 115.173L42.9891 113.661L44.1773 112.041L45.1494 110.529L46.3375 108.044L42.9891 106.208L42.2331 108.044L40.7209 110.853L39.1007 113.013L36.6164 114.741L33.9161 116.037L31.9718 116.685L29.7036 117.009H27.3273L25.059 116.901L23.5468 116.577L21.2785 115.605L18.9023 114.093L17.7141 112.905L16.2019 111.069L14.6898 108.692L13.7176 106.316L12.8535 103.94L11.9894 100.159L11.6654 96.8111V92.4905L11.8814 89.3582L12.5295 85.4697L13.7176 81.5812L15.5539 77.6928L18.1462 74.5604L20.5225 72.9402L22.6827 71.8601L24.1949 71.428L27.0032 71.212L28.8955 71.3171L30.506 71.446L32.2959 71.8601L35.3202 72.9402L37.1564 74.1283L38.3446 75.3165L39.7488 77.1527L40.7209 78.6649L41.585 80.3931L42.125 81.6892L42.8811 83.4174L43.0972 84.0655L43.5292 85.2537Z" fill="white"/>
<path d="M57.031 118.09V119.386H65.672V69.0518H56.8149V70.3479H57.247L58.0031 70.5639L58.7592 70.996L59.4073 71.428L60.0553 71.9681L60.7034 72.7242L61.1355 73.4803L61.3515 74.2364L61.2435 114.093C61.2435 114.235 61.2104 114.375 61.1469 114.502L60.9194 114.957L60.4874 115.713L60.3959 115.866C60.2415 116.123 60.056 116.361 59.8437 116.573L59.5153 116.901L58.7592 117.442L57.8951 117.874L57.031 118.09Z" fill="url(#paint3_linear_177_448)"/>
<path d="M65.672 69.0518V119.386H92.9993L94.6195 104.264H93.6473L92.9993 106.316L92.5672 107.396L92.1352 108.476L91.5951 109.557L91.1631 110.421L90.623 111.393L89.9749 112.581L89.4348 113.337L88.7868 114.201L88.1387 114.849L87.2746 115.389L86.1945 115.713L85.1143 115.929H75.6092H72.1528V74.5604L72.3688 73.4803L73.1249 72.1841L73.989 71.32L75.0691 70.672L75.9332 70.3479H76.6893V69.0518H65.672Z" fill="white"/>
<path d="M92.9993 106.316L93.6473 104.264H92.5672L91.5951 106.424L90.947 107.72L90.2989 108.801L89.6509 109.989L89.1108 110.745L88.4627 111.609L87.8146 112.365L87.1666 113.013L86.4105 113.553L85.8704 113.877L84.8983 114.417L83.6021 114.849L82.306 115.173L80.9018 115.389L79.7137 115.497L78.5255 115.605L77.4454 115.713L75.6092 115.929H85.1143L86.1945 115.713L87.2746 115.389L88.1387 114.849L88.7868 114.201L89.4348 113.337L89.9749 112.581L90.623 111.393L91.1631 110.421L91.5951 109.557L92.1352 108.476L92.5672 107.396L92.9993 106.316Z" fill="url(#paint4_linear_177_448)"/>
<path d="M103.693 119.278H112.334V69.2678H103.693V70.2399H104.341L104.989 70.3479L105.529 70.672L106.177 71.212L106.717 71.8601L107.257 72.5082L107.689 73.1562L108.013 73.6963L108.121 74.3444V114.309L108.013 114.849L107.797 115.389L107.473 115.929L107.149 116.361L106.609 116.901L106.285 117.118L105.529 117.55L105.097 117.766L104.449 117.982H103.693V119.278Z" fill="url(#paint5_linear_177_448)"/>
<path d="M141.173 92.2745V95.5149L141.065 114.309L140.741 115.065L140.201 115.929L139.769 116.469L139.229 117.009L138.581 117.442L138.041 117.766L137.393 117.982H136.421V119.386H145.386V69.0518H136.529V70.1319H137.285L137.933 70.3479L139.013 70.996L139.877 72.0761L140.525 72.9402L140.957 73.9123V74.8845L141.173 92.2745Z" fill="url(#paint6_linear_177_448)"/>
<path d="M112.334 69.2678V119.278H123.351V118.09H122.487L121.731 117.874L120.867 117.226L120.219 116.577L119.679 115.929L119.246 115.173L119.138 114.309V95.5149H141.173V92.2745H119.138V74.3444L119.355 73.1562L119.895 72.1841L120.543 71.428L121.299 70.888L122.163 70.4559L122.919 70.2399H123.459V69.2678H112.334Z" fill="white"/>
<path d="M156.619 119.386V118.198L155.647 117.982L154.891 117.658L154.027 117.226L153.271 116.577L152.622 115.929L152.298 115.281L151.974 114.309V74.3444L152.406 73.1562L153.055 72.1841L153.811 71.428L154.351 70.996L155.107 70.5639L155.755 70.3479H156.511V69.0518H145.386V119.386H156.619Z" fill="white"/>
<path d="M9.43591 9.18173L7 6.1837L11.8718 9.18173L17.3058 12.5545L23.6766 15.9273L28.9231 17.9885L33.9823 19.8622L38.8541 21.1739L45.5997 22.4855L50.8463 23.235L56.2802 23.4224H63.7753L70.8957 22.6729L77.8286 22.2981L83.4499 22.6729L87.7596 23.0477L92.2567 23.7972L96.379 25.1088L105.935 28.8564L102.375 26.0457L98.6275 23.7972L94.3178 21.9234L89.6334 20.237L84.7616 18.9254L79.1403 17.9885L75.2053 17.8011H53.4696L49.1599 17.4263L46.5366 16.6768V15.9273L48.7851 13.304L51.5958 10.4934L55.156 7.68272L59.0909 5.24681L62.4637 3.56041L67.5229 1.68664L72.9568 0.374999L79.3276 0.187622L84.3868 0.374999L87.7596 0.749754L93.9431 2.43615L98.6275 4.12255L103.499 6.37107L108.184 8.80698L113.056 11.2429L117.365 13.304L121.862 14.9904L126.172 15.9273L129.732 16.3021H135.166L139.101 15.9273L143.411 15.1778L151.843 11.9924L148.47 16.8642L144.348 21.5486L140.038 25.2962L135.728 28.8564L132.168 31.2923L125.235 35.4146L119.426 38.6L113.243 40.8485L107.809 42.5349L99.1896 44.5961L95.8168 44.9708L90.5703 45.3456L75.7675 45.1582L72.7694 44.5961L69.3966 43.8465L66.3986 43.097L62.6511 41.598L59.4656 40.099L56.8424 38.7874L53.8443 36.7262L51.5958 35.0398L49.3473 32.6039L47.0987 30.168L45.9745 29.7932L44.8502 29.6059L41.8522 28.8564L36.2309 26.9826L32.1086 25.1088L25.5504 21.9234L20.6785 18.9254L15.8067 15.1778L12.2466 12.1798L9.43591 9.18173Z" fill="white" stroke="black" stroke-width="0.374755"/>
<defs>
<linearGradient id="paint0_linear_177_448" x1="23.1688" y1="68.1876" x2="23.1688" y2="120.142" gradientUnits="userSpaceOnUse">
<stop stop-color="#D7B881"/>
<stop offset="0.225985" stop-color="#A87536"/>
</linearGradient>
<linearGradient id="paint1_linear_177_448" x1="23.1688" y1="68.1876" x2="23.1688" y2="120.142" gradientUnits="userSpaceOnUse">
<stop stop-color="#D7B881"/>
<stop offset="1" stop-color="#A87536"/>
</linearGradient>
<linearGradient id="paint2_linear_177_448" x1="23.1688" y1="68.1876" x2="23.1688" y2="120.142" gradientUnits="userSpaceOnUse">
<stop stop-color="#D7B881"/>
<stop offset="1" stop-color="#737373"/>
</linearGradient>
<linearGradient id="paint3_linear_177_448" x1="75.7172" y1="69.0518" x2="75.7172" y2="119.386" gradientUnits="userSpaceOnUse">
<stop stop-color="#D7B881"/>
<stop offset="1" stop-color="#A87536"/>
</linearGradient>
<linearGradient id="paint4_linear_177_448" x1="75.7172" y1="69.0518" x2="75.7172" y2="119.386" gradientUnits="userSpaceOnUse">
<stop stop-color="#D7B881"/>
<stop offset="1" stop-color="#A87536"/>
</linearGradient>
<linearGradient id="paint5_linear_177_448" x1="130.156" y1="69.0518" x2="130.156" y2="119.386" gradientUnits="userSpaceOnUse">
<stop stop-color="#D7B881"/>
<stop offset="1" stop-color="#9B6D39"/>
</linearGradient>
<linearGradient id="paint6_linear_177_448" x1="130.156" y1="69.0518" x2="130.156" y2="119.386" gradientUnits="userSpaceOnUse">
<stop stop-color="#D7B881"/>
<stop offset="1" stop-color="#9B6D39"/>
</linearGradient>
</defs>
</svg>
